<svg xmlns="http://www.w3.org/2000/svg" viewBox="0 0 64 64">
  <path d="M14,29
           C14,26 15,23 17,20
           C18.3,17.8 20,15.5 22.5,13.2
           L22.5,7.5
           L28.5,13.5
           C30.5,15 33,16.8 35,19
           C37.8,22 40,24.5 41,26.5
           C39,27 37.5,28.3 37.8,30
           C38.1,31.7 40,32.5 41.5,32.3
           C41.8,34.7 41,37.3 39.5,39.8
           C41.8,42.5 43.7,45.7 44.3,49
           L18,49
           C18.2,46 18.8,42.3 19.6,39.3
           C17.3,37.6 15.3,34.8 14.5,32
           C14.1,31 14,30 14,29 Z" fill="#4B7F52"/>
  <circle cx="24" cy="18.5" r="1.5" fill="#F5F5F0"/>
  <path d="M15.5,31 C16.3,32 17.5,32.4 18.6,32.1 C17.8,33.3 16.4,33.8 15,33.5 C14.6,32.6 14.9,31.7 15.5,31 Z" fill="#F5F5F0"/>
  <rect x="15.5" y="49" width="31" height="6.5" rx="3.25" fill="#4B7F52"/>
</svg>
