<svg xmlns="http://www.w3.org/2000/svg" viewBox="0 0 64 64">
  <circle cx="32" cy="17" r="7.5" fill="#4B7F52"/>
  <path d="M25.5,26
           C25.5,30 22.5,32.5 20.5,37.5
           C19,41.5 18.5,45.5 18.5,48
           C18.5,49 19,49.5 20,49.5
           L44,49.5
           C45,49.5 45.5,49 45.5,48
           C45.5,45.5 45,41.5 43.5,37.5
           C41.5,32.5 38.5,30 38.5,26
           C36.5,27.3 34.3,28 32,28
           C29.7,28 27.5,27.3 25.5,26 Z" fill="#4B7F52"/>
  <rect x="15" y="49.5" width="34" height="6.5" rx="3.25" fill="#4B7F52"/>
</svg>
